<svg xmlns="http://www.w3.org/2000/svg" width="18" height="18" viewBox="0 0 18 18">
    <g fill="none" fill-rule="evenodd">
        <path d="M0 0H18V18H0z"/>
        <path fill="#333" fill-rule="nonzero" d="M12.105 15.3c.373 0 .675.302.675.675 0 .373-.302.675-.675.675h-5.85c-.373 0-.675-.302-.675-.675 0-.373.302-.675.675-.675h5.85zM9 0c3.48 0 6.3 2.82 6.3 6.3 0 2.061-.99 3.891-2.52 5.04v2.16c0 .497-.403.9-.9.9h-5.4c-.497 0-.9-.403-.9-.9l-.001-1.909C3.846 10.47 2.7 8.518 2.7 6.3 2.7 2.82 5.52 0 9 0zm0 1.35c-2.734 0-4.95 2.216-4.95 4.95 0 1.407.587 2.677 1.53 3.579.394.376.85.688 1.35.919v2.252h4.5l.001-2.437c.485-.274.92-.628 1.286-1.043.767-.872 1.233-2.017 1.233-3.27 0-2.734-2.216-4.95-4.95-4.95zm3.397 2.903l.675 1.17c.186.322.076.735-.247.921-.323.187-.736.076-.922-.247l-.675-1.17c-.186-.322-.076-.735.247-.921.323-.187.736-.076.922.247z"/>
    </g>
</svg>
